# xmcd CD database file
#
# Track frame offsets:
#	150
#	16427
#	30071
#	53451
#	65720
#	79312
#	97377
#	107590
#	117332
#	133160
#	151192
#	165418
#	183713
#	199122
#	214098
#	225898
#	247332
#	261738
#	277003
#	293296
#	311952
#
# Disc length: 4395 seconds
#
# Revision: 0
# Processed by: cddbd v1.5.1PL0 Copyright (c) Steve Scherf et al.
# Submitted via: CDex 1.50
#
DISCID=32112915
DTITLE=Schabuwan - I Want You
DYEAR=2005
DGENRE=Country
TTITLE0=She Belongs To Me
TTITLE1=I'll Remember You
TTITLE2=If You See Her, Say Hello
TTITLE3=Wonderful Tonight
TTITLE4=Early Morning Rain
TTITLE5=Boots Of Spanish Leather
TTITLE6=All I Have To Do Is Dream
TTITLE7=Tomorrow Is A Long Time
TTITLE8=To Ramona
TTITLE9=As I Went Out One Morning
TTITLE10=She's A Mystery To Me
TTITLE11=I'm Your Man
TTITLE12=You Ain't Going Nowhere
TTITLE13=I Don't Believe You
TTITLE14=Love Me Tender
TTITLE15=Love Minus Zero - No Limit
TTITLE16=It Seems So Long Ago, Nancy
TTITLE17=Lay, Lady, Lay
TTITLE18=Is Your Love In Vain?
TTITLE19=I Want You
TTITLE20=Ruby Tueday
EXTD=YEAR: 2005
EXTT0=
EXTT1=
EXTT2=
EXTT3=
EXTT4=
EXTT5=
EXTT6=
EXTT7=
EXTT8=
EXTT9=
EXTT10=
EXTT11=
EXTT12=
EXTT13=
EXTT14=
EXTT15=
EXTT16=
EXTT17=
EXTT18=
EXTT19=
EXTT20=
PLAYORDER=
